<?xml version="1.0" standalone="no"?>
<!DOCTYPE svg PUBLIC "-//W3C//DTD SVG 20010904//EN"
 "http://www.w3.org/TR/2001/REC-SVG-20010904/DTD/svg10.dtd">
<svg version="1.0" xmlns="http://www.w3.org/2000/svg"
 width="350.000000pt" height="350.000000pt" viewBox="0 0 350.000000 350.000000"
 preserveAspectRatio="xMidYMid meet">
<metadata>
Created by potrace 1.11, written by Peter Selinger 2001-2013
</metadata>
<g transform="translate(0.000000,350.000000) scale(0.100000,-0.100000)"
fill="#000000" stroke="none">
<path d="M2759 2135 c-179 -358 -267 -524 -344 -649 -11 -18 -29 -47 -40 -64
-14 -23 -24 -30 -35 -25 -22 11 -137 10 -149 -2 -5 -5 -7 -22 -4 -37 4 -24 8
-26 30 -17 29 11 80 12 87 1 9 -15 -21 -41 -57 -47 -53 -10 -86 -40 -93 -84
-5 -31 -16 -44 -76 -89 -39 -29 -72 -51 -74 -49 -2 2 25 75 60 163 l64 159
-30 3 c-17 2 -34 0 -38 -5 -4 -4 -22 -50 -41 -100 -19 -51 -36 -93 -39 -93 -3
0 -23 43 -45 96 -22 53 -45 98 -52 101 -6 2 -22 3 -36 1 l-25 -3 59 -145 c32
-80 59 -155 59 -167 0 -24 -26 -43 -59 -43 -16 0 -21 -6 -21 -29 0 -46 -19
-54 -107 -46 -43 4 -81 8 -84 10 -3 2 -39 7 -80 11 -41 3 -76 8 -79 9 -14 9
-204 19 -340 20 -216 0 -347 -16 -680 -80 l-175 -34 104 5 c57 2 107 6 110 8
3 2 33 7 66 11 32 3 62 8 65 10 3 1 30 6 60 9 30 4 82 11 115 16 194 30 471
29 685 -2 41 -6 85 -10 97 -10 12 1 24 -2 27 -7 3 -4 -24 -9 -59 -10 -35 -1
-78 -6 -95 -11 -16 -5 -33 -8 -37 -7 -4 1 -19 -35 -33 -80 -15 -46 -26 -83
-24 -83 2 0 -4 -16 -12 -35 -17 -42 -17 -45 0 -45 22 0 182 67 331 139 l140
67 153 0 c114 -1 155 -4 161 -14 5 -9 27 -12 67 -11 105 4 122 23 32 35 -51 7
-63 14 -23 14 36 0 244 46 318 71 179 60 337 134 337 158 2 39 32 95 86 158
32 37 62 70 66 73 13 11 88 158 114 225 19 52 27 92 28 155 4 126 -14 202
-117 495 -20 55 -42 131 -50 170 -14 73 -17 72 -33 -10 -12 -63 -64 -287 -91
-390 -13 -55 -27 -108 -29 -118 -2 -10 -6 -27 -9 -37 -3 -10 -8 -27 -10 -37
-15 -68 -63 -236 -96 -337 -72 -217 -153 -340 -273 -418 -59 -38 -176 -81
-252 -92 -22 -4 -51 -9 -64 -11 -14 -3 -65 -7 -115 -11 l-90 -5 75 46 c41 26
97 63 124 83 37 27 57 36 83 33 18 -1 46 4 63 12 25 13 31 13 41 1 7 -8 24
-14 38 -12 20 2 25 8 22 23 -2 11 -5 47 -7 80 l-4 60 121 124 c176 182 225
274 309 591 87 326 141 543 137 554 -2 6 -96 -174 -208 -399z m-435 -949 c-6
-15 -34 -31 -34 -19 0 5 30 32 37 33 1 0 0 -6 -3 -14z m-648 -299 c6 -6 -164
-87 -197 -94 -29 -5 -38 7 -34 47 1 14 3 33 4 43 1 17 10 18 112 14 61 -3 112
-7 115 -10z"/>
<path d="M450 1967 c0 -2 -18 -93 -40 -202 -22 -109 -40 -200 -40 -202 0 -2
18 -3 39 -3 45 0 43 -4 62 134 l12 89 43 -109 c30 -79 46 -109 59 -109 12 0
29 30 60 105 41 100 43 103 49 70 10 -57 26 -164 26 -172 0 -5 18 -8 40 -8 22
0 40 1 40 3 0 2 -18 93 -40 202 -22 109 -40 200 -40 202 0 3 -10 3 -21 1 -18
-2 -30 -26 -68 -135 l-46 -133 -43 123 c-23 67 -45 128 -47 135 -4 10 -45 19
-45 9z"/>
<path d="M1231 1944 c-12 -15 -21 -31 -21 -35 0 -12 34 -11 46 1 8 8 25 7 58
-2 47 -12 49 -12 72 15 13 16 24 32 24 38 0 13 -34 11 -47 -2 -9 -9 -20 -9
-44 0 -48 17 -65 14 -88 -15z"/>
<path d="M1257 1850 c-21 -17 -26 -18 -31 -5 -3 8 -17 15 -31 15 l-25 0 0
-150 0 -150 35 0 35 0 0 113 c0 112 0 114 25 125 40 18 72 14 89 -10 12 -17
16 -48 16 -125 l0 -103 35 0 35 0 0 113 c0 94 -3 117 -20 145 -33 54 -115 70
-163 32z"/>
<path d="M1559 1847 c-85 -56 -92 -185 -14 -257 22 -21 36 -25 90 -25 54 0 68
4 90 25 56 51 70 132 36 206 -33 72 -133 97 -202 51z m131 -64 c18 -23 21 -37
17 -77 -11 -123 -147 -113 -147 11 0 84 83 125 130 66z"/>
<path d="M832 1735 c3 -111 5 -127 24 -146 26 -25 92 -35 136 -20 22 8 34 8
36 1 2 -5 19 -10 38 -10 l34 0 0 150 0 150 -35 0 -35 0 0 -104 c0 -97 -2 -106
-22 -120 -29 -20 -72 -20 -92 0 -13 12 -16 38 -16 120 l0 104 -36 0 -36 0 4
-125z"/>
<path d="M1820 1830 l0 -29 84 -3 84 -3 -84 -105 c-46 -58 -83 -111 -84 -117
0 -10 33 -13 135 -13 l135 0 0 30 0 30 -80 0 -80 0 80 110 c44 60 80 114 80
120 0 6 -50 10 -135 10 l-135 0 0 -30z"/>
<path d="M1620 1496 c-5 -14 -35 -88 -66 -163 -31 -76 -65 -160 -75 -186 l-19
-48 42 3 c37 3 42 6 53 38 l12 35 75 3 76 3 16 -41 c15 -37 18 -40 56 -40 l40
0 -17 43 c-147 370 -170 412 -193 353z m56 -188 l23 -68 -54 0 -53 0 26 81
c15 44 29 74 31 67 2 -7 14 -43 27 -80z"/>
</g>
</svg>
