<?xml version="1.0" standalone="no"?>
<!DOCTYPE svg PUBLIC "-//W3C//DTD SVG 20010904//EN"
 "http://www.w3.org/TR/2001/REC-SVG-20010904/DTD/svg10.dtd">
<svg version="1.0" xmlns="http://www.w3.org/2000/svg"
 width="261.000000pt" height="261.000000pt" viewBox="0 0 261.000000 261.000000"
 preserveAspectRatio="xMidYMid meet">
<metadata>
Created by potrace 1.11, written by Peter Selinger 2001-2013
</metadata>
<g transform="translate(0.000000,261.000000) scale(0.100000,-0.100000)"
fill="#000000" stroke="none">
<path d="M1124 2164 c-33 -51 -94 -151 -136 -221 -76 -124 -77 -126 -89 -100
-7 16 -21 28 -33 28 -70 4 -200 -1 -206 -8 -4 -4 -67 -145 -140 -313 -72 -168
-138 -318 -145 -335 -59 -131 -367 -842 -368 -850 -1 -5 48 -10 120 -11 l122
-2 46 76 c25 43 82 133 125 202 44 69 89 141 100 160 18 31 88 142 168 270 16
25 66 105 112 178 46 73 84 131 86 129 5 -5 66 -123 162 -312 123 -245 95
-221 257 -220 l136 0 137 267 c75 146 139 265 142 263 3 -2 147 -230 320 -507
l315 -505 117 -1 c65 0 120 3 123 8 3 4 -20 63 -49 131 -30 68 -174 403 -321
744 -147 341 -271 624 -275 629 -7 7 -121 11 -202 7 -10 -1 -24 -13 -32 -28
l-14 -27 -48 77 c-27 42 -89 142 -138 222 l-90 144 -121 0 -122 -1 -59 -94z
m386 -460 c0 -1 16 -26 35 -55 19 -30 35 -59 35 -65 0 -9 -265 -540 -276 -553
-1 -2 -66 123 -143 278 l-141 280 29 48 c17 26 42 68 57 93 15 25 65 105 112
178 l84 132 104 -166 c57 -92 104 -168 104 -170z"/>
</g>
</svg>
